<?xml version="1.0" standalone="no"?>
<!DOCTYPE svg PUBLIC "-//W3C//DTD SVG 20010904//EN"
 "http://www.w3.org/TR/2001/REC-SVG-20010904/DTD/svg10.dtd">
<svg version="1.0" xmlns="http://www.w3.org/2000/svg"
 width="200.000000pt" height="200.000000pt" viewBox="0 0 200.000000 200.000000"
 preserveAspectRatio="xMidYMid meet">
<metadata>
Created by potrace 1.14, written by Peter Selinger 2001-2017
</metadata>
<g transform="translate(0.000000,200.000000) scale(0.100000,-0.100000)"
fill="#000000" stroke="none">
<path d="M0 1000 l0 -1000 1000 0 1000 0 0 1000 0 1000 -1000 0 -1000 0 0
-1000z m1127 805 c77 -23 170 -91 214 -155 66 -97 73 -134 74 -400 0 -218 -2
-239 -22 -293 -66 -175 -207 -264 -431 -275 l-113 -5 3 -223 c3 -213 4 -224
26 -253 l23 -31 -162 0 -162 0 20 23 c44 47 43 36 43 804 0 719 -1 740 -20
778 -11 22 -20 40 -20 42 0 4 341 10 410 6 36 -1 89 -10 117 -18z"/>
<path d="M862 1745 c-9 -19 -12 -165 -12 -515 l0 -490 90 0 c103 0 130 10 178
65 81 92 92 144 92 450 0 306 -13 368 -94 453 -48 51 -76 62 -164 62 -75 0
-79 -1 -90 -25z"/>
</g>
</svg>
