<svg xmlns="http://www.w3.org/2000/svg" xmlns:xlink="http://www.w3.org/1999/xlink"><symbol id="arrow" viewBox="0 0 26 16"><g fill="none"><path d="M1.77676 6.96102C1.23497 6.96102 0.795766 7.40023 0.795766 7.94202C0.795766 8.48381 1.23497 8.92301 1.77676 8.92301V6.96102ZM24.7937 8.63569C25.1768 8.25258 25.1768 7.63145 24.7937 7.24835L18.5506 1.00531C18.1675 0.622208 17.5464 0.622208 17.1633 1.00531C16.7802 1.38841 16.7802 2.00955 17.1633 2.39265L22.7127 7.94202L17.1633 13.4914C16.7802 13.8745 16.7802 14.4956 17.1633 14.8787C17.5464 15.2618 18.1675 15.2618 18.5506 14.8787L24.7937 8.63569ZM1.77676 8.92301H24.1V6.96102H1.77676V8.92301Z" fill="black"/></g></symbol><symbol id="icon-close" viewBox="0 0 20 20"><g fill="none"><path d="M.293 18.291a1 1 0 101.414 1.414L10 11.413l8.292 8.292a1 1 0 101.414-1.414l-8.292-8.292 8.292-8.292A1 1 0 1018.291.293L9.999 8.585 1.707.293A1 1 0 10.293 1.707L8.585 10 .293 18.291z"/></g></symbol></svg>