<svg width="337" height="45" viewBox="0 0 337 45" fill="none" xmlns="http://www.w3.org/2000/svg">
<path d="M76.5793 33.3377H72.786V21.4146L66.2445 29.1434L59.6086 21.5089V33.3377H55.8468V11.1945L66.1815 23.306L76.5793 11.1945V33.3377Z" fill="white"/>
<path d="M87.6727 33.3377H84.0053V11.1002H87.6727V33.3377Z" fill="white"/>
<path d="M115.359 11.1002L107.521 22.2347L115.296 33.2434H110.744L105.339 25.5461L99.8396 33.2434H95.3191L103.063 22.2347L95.2247 11.1002H99.7766L105.245 18.9232L110.839 11.1002H115.359Z" fill="white"/>
<path d="M145.007 22.2347C145.007 23.8119 144.711 25.2791 144.122 26.6363C143.533 27.9936 142.731 29.1717 141.72 30.1677C140.71 31.1667 139.529 31.949 138.182 32.5177C136.834 33.0864 135.399 33.3691 133.885 33.3691C132.371 33.3691 130.834 33.0738 129.475 32.4863C128.115 31.8988 126.934 31.0945 125.933 30.0734C124.932 29.0523 124.148 27.871 123.578 26.5263C123.009 25.1817 122.725 23.749 122.725 22.2378C122.725 20.7266 123.009 19.2877 123.578 17.9305C124.148 16.5732 124.932 15.3919 125.933 14.3834C126.934 13.3749 128.115 12.5737 129.475 11.9862C130.834 11.3987 132.305 11.1034 133.885 11.1034C135.465 11.1034 136.935 11.3987 138.295 11.9862C139.655 12.5737 140.829 13.3749 141.818 14.3834C142.809 15.3919 143.587 16.5764 144.157 17.9305C144.726 19.2877 145.01 20.7235 145.01 22.2378L145.007 22.2347ZM141.245 22.2347C141.245 21.267 141.05 20.3433 140.659 19.4574C140.269 18.5745 139.737 17.8016 139.063 17.1387C138.39 16.4758 137.609 15.9511 136.724 15.5616C135.84 15.172 134.892 14.9772 133.879 14.9772C132.865 14.9772 131.92 15.172 131.033 15.5616C130.148 15.9511 129.367 16.4758 128.694 17.1387C128.02 17.8016 127.488 18.5745 127.098 19.4574C126.707 20.3402 126.512 21.267 126.512 22.2347C126.512 23.2024 126.707 24.126 127.098 25.012C127.488 25.8949 128.02 26.6677 128.694 27.3306C129.367 27.9936 130.148 28.5182 131.033 28.9078C131.917 29.2974 132.865 29.4922 133.879 29.4922C134.826 29.4922 135.742 29.31 136.627 28.9392C137.511 28.5716 138.295 28.0627 138.981 27.4092C139.664 26.7588 140.215 25.9891 140.625 25.1063C141.037 24.2234 141.242 23.2652 141.242 22.2347H141.245Z" fill="white"/>
<path d="M166.718 33.3377H151.674V11.1002H155.341V29.6147H166.718V33.3377Z" fill="white"/>
<path d="M195.922 22.2347C195.922 23.8119 195.626 25.2791 195.037 26.6363C194.449 27.9936 193.646 29.1717 192.635 30.1677C191.625 31.1667 190.444 31.949 189.097 32.5177C187.747 33.0864 186.314 33.3691 184.8 33.3691C183.286 33.3691 181.75 33.0738 180.39 32.4863C179.03 31.8988 177.849 31.0945 176.848 30.0734C175.847 29.0523 175.063 27.871 174.494 26.5263C173.924 25.1817 173.641 23.749 173.641 22.2378C173.641 20.7266 173.924 19.2877 174.494 17.9305C175.063 16.5732 175.847 15.3919 176.848 14.3834C177.849 13.3749 179.03 12.5737 180.39 11.9862C181.75 11.3987 183.22 11.1034 184.8 11.1034C186.38 11.1034 187.85 11.3987 189.21 11.9862C190.57 12.5737 191.745 13.3749 192.733 14.3834C193.725 15.3919 194.502 16.5764 195.072 17.9305C195.642 19.2877 195.925 20.7235 195.925 22.2378L195.922 22.2347ZM192.16 22.2347C192.16 21.267 191.965 20.3433 191.575 19.4574C191.184 18.5745 190.652 17.8016 189.978 17.1387C189.305 16.4758 188.524 15.9511 187.64 15.5616C186.755 15.172 185.807 14.9772 184.794 14.9772C183.78 14.9772 182.836 15.172 181.948 15.5616C181.063 15.9511 180.283 16.4758 179.609 17.1387C178.935 17.8016 178.403 18.5745 178.013 19.4574C177.623 20.3402 177.428 21.267 177.428 22.2347C177.428 23.2024 177.623 24.126 178.013 25.012C178.403 25.8949 178.935 26.6677 179.609 27.3306C180.283 27.9936 181.063 28.5182 181.948 28.9078C182.833 29.2974 183.78 29.4922 184.794 29.4922C185.741 29.4922 186.657 29.31 187.542 28.9392C188.427 28.5716 189.21 28.0627 189.897 27.4092C190.58 26.7588 191.131 25.9891 191.54 25.1063C191.952 24.2234 192.157 23.2652 192.157 22.2347H192.16Z" fill="white"/>
<path d="M224.084 33.3376H221.08V30.6891C220.533 31.1729 219.957 31.5876 219.358 31.9364C218.757 32.282 218.146 32.5616 217.526 32.7721C216.903 32.9826 216.283 33.1334 215.663 33.2308C215.043 33.325 214.444 33.3722 213.878 33.3722C212.298 33.3722 210.827 33.0768 209.468 32.4893C208.108 31.9018 206.927 31.0975 205.926 30.0765C204.925 29.0554 204.141 27.8741 203.571 26.5294C203.002 25.1847 202.718 23.7521 202.718 22.2409C202.718 20.7297 203.002 19.2908 203.571 17.9335C204.141 16.5763 204.925 15.395 205.926 14.3865C206.927 13.3779 208.108 12.5768 209.468 11.9893C210.827 11.4018 212.298 11.1064 213.878 11.1064C214.677 11.1064 215.568 11.229 216.547 11.4677C217.526 11.7097 218.502 12.0992 219.472 12.6365C220.441 13.1737 221.342 13.8869 222.173 14.7823C223.004 15.6777 223.674 16.7648 224.181 18.0466H219.884C218.893 16.8276 217.914 16.0107 216.944 15.6023C215.974 15.1907 214.951 14.9865 213.878 14.9865C212.908 14.9865 211.983 15.175 211.095 15.5552C210.21 15.9322 209.423 16.4475 208.74 17.1009C208.054 17.7513 207.513 18.521 207.113 19.4039C206.713 20.2867 206.512 21.2324 206.512 22.244C206.512 23.2557 206.713 24.1951 207.113 25.0685C207.513 25.9419 208.057 26.7085 208.74 27.3714C209.423 28.0343 210.21 28.5527 211.095 28.9328C211.98 29.3099 212.908 29.5015 213.878 29.5015C214.363 29.5015 214.904 29.445 215.505 29.3287C216.107 29.2125 216.705 29.0083 217.306 28.7129C217.907 28.4176 218.474 28.0092 219.012 27.4814C219.55 26.9567 220.007 26.2938 220.388 25.4958H212.993V22.5613H224.087V33.3502L224.084 33.3376Z" fill="white"/>
<path d="M251.896 11.1002L244.152 22.3289V33.3377H239.823V22.3289L232.079 11.1002H236.6L242.099 18.9232L247.662 11.1002H251.896Z" fill="white"/>
<path d="M286.574 26.5232C286.574 27.45 286.388 28.3171 286.02 29.1246C285.651 29.9351 285.167 30.6483 284.565 31.2704C283.964 31.8893 283.297 32.3732 282.557 32.7219C281.82 33.0675 281.071 33.2434 280.313 33.2434H269.597V11.006H277.974C278.077 11.006 278.263 11.0343 278.528 11.0845C278.792 11.1379 278.987 11.1851 279.113 11.2259C279.894 11.4364 280.571 11.7569 281.153 12.1873C281.732 12.6177 282.211 13.1078 282.592 13.6545C282.969 14.2012 283.256 14.7855 283.445 15.4045C283.634 16.0265 283.728 16.6297 283.728 17.2173C283.728 17.3429 283.712 17.5377 283.681 17.8016C283.649 18.0655 283.596 18.3483 283.523 18.653C283.448 18.9578 283.353 19.2688 283.24 19.583C283.124 19.8972 282.973 20.1705 282.781 20.403C283.539 20.8868 284.159 21.377 284.644 21.8702C285.129 22.3635 285.513 22.8756 285.796 23.4003C286.08 23.9249 286.281 24.4528 286.398 24.9774C286.514 25.5021 286.571 26.0174 286.571 26.5232H286.574ZM279.938 17.1858C279.938 16.8905 279.828 16.5072 279.607 16.0328C279.387 15.5584 279.034 15.2065 278.55 14.9772C278.465 14.9363 278.377 14.8924 278.282 14.8515C278.188 14.8107 278.087 14.7887 277.983 14.7887H273.337V19.6773H277.634C277.97 19.6773 278.276 19.5987 278.55 19.4416C278.824 19.2845 279.066 19.0835 279.277 18.8416C279.488 18.5996 279.651 18.3326 279.768 18.0373C279.884 17.7419 279.941 17.4592 279.941 17.1858H279.938ZM282.784 26.4604C282.784 26.187 282.721 25.8823 282.595 25.5461C282.469 25.2099 282.296 24.8958 282.072 24.6004C281.852 24.3051 281.581 24.06 281.266 23.859C280.952 23.661 280.602 23.5605 280.224 23.5605H273.333V29.489H280.13C280.53 29.489 280.898 29.3885 281.235 29.1906C281.572 28.9926 281.852 28.7381 282.072 28.4334C282.293 28.1286 282.466 27.8019 282.595 27.4563C282.721 27.1107 282.784 26.7777 282.784 26.4635V26.4604Z" fill="white"/>
<path d="M311.987 33.2434H308.32L306.771 29.7435H298.363L296.814 33.2434H293.147L302.566 11.1002L311.984 33.2434H311.987ZM305.191 26.0205L302.569 19.8689L299.946 26.0205H305.194H305.191Z" fill="white"/>
<path d="M336.069 33.3377H331.804L327.315 25.766H321.815V33.3377H318.085V11.1002H328.011C328.051 11.1002 328.152 11.1096 328.31 11.1316C328.467 11.1536 328.64 11.185 328.832 11.2259C329.021 11.2699 329.21 11.317 329.402 11.3673C329.591 11.4207 329.739 11.4678 329.846 11.5087C330.73 11.8448 331.489 12.2721 332.122 12.7874C332.755 13.3026 333.265 13.865 333.655 14.4745C334.045 15.084 334.335 15.7312 334.524 16.4161C334.713 17.101 334.807 17.7765 334.807 18.452C334.807 18.9766 334.744 19.5296 334.618 20.1077C334.492 20.6858 334.281 21.2576 333.985 21.8262C333.689 22.3949 333.305 22.9353 332.833 23.4505C332.358 23.9658 331.776 24.4245 331.08 24.8235L336.072 33.3408L336.069 33.3377ZM331.014 18.4488C331.014 17.7765 330.85 17.1513 330.523 16.5732C330.195 15.9951 329.663 15.527 328.927 15.1688C328.757 15.084 328.565 15.018 328.341 14.9646C328.121 14.9112 327.957 14.8861 327.85 14.8861H321.812V21.9833H327.85C328.313 21.9833 328.735 21.8734 329.115 21.6534C329.496 21.4335 329.827 21.1445 330.11 20.7863C330.394 20.4281 330.617 20.0448 330.774 19.6364C330.932 19.2248 331.011 18.8321 331.011 18.4551L331.014 18.4488Z" fill="white"/>
<path d="M10.1414 12.5989C13.8308 8.4109 17.4888 4.93296 17.5958 4.83242C18.3293 4.16637 17.5171 3.53487 17.0355 3.95901C16.9001 4.08782 13.2453 7.69458 9.50554 12.0616L10.1383 12.5989H10.1414Z" fill="white"/>
<path d="M16.5569 19.385C11.5548 23.8212 6.3575 27.3054 3.95246 26.1147C2.08256 25.2476 2.67438 23.6453 2.75938 23.3782C3.6471 20.5978 6.54953 16.7428 9.55899 13.2649L8.93569 12.7371C5.26516 17.0916 1.68592 22.0398 1.44982 25.0182C1.36483 26.8625 3.02695 27.7296 3.02695 27.7296C6.60619 29.4481 12.4646 24.6318 17.3659 20.0354L16.5601 19.385H16.5569Z" fill="white"/>
<path d="M38.8792 32.4831C38.8131 32.5773 37.7742 33.8058 36.1562 35.4175L36.8424 35.9987C38.5423 34.3053 39.685 32.9858 39.77 32.8758C40.1384 32.3511 39.4552 31.6788 38.8792 32.4831Z" fill="white"/>
<path d="M40.9726 12.2689C40.2359 11.8762 39.8991 12.5422 40.2611 12.8973C40.513 13.136 41.0513 13.7958 40.6106 14.1979C39.7763 15.2316 32.8666 21.5183 26.6052 27.0321L27.6346 27.9023C31.5696 24.4118 35.4384 20.981 36.7512 19.8971C34.387 22.709 31.897 25.4172 29.5675 28.2574C27.5591 30.664 26.7658 31.5405 24.9903 34.1293C23.6336 36.0552 22.2768 38.1382 22.0848 40.6077C21.9683 41.9366 22.7773 43.4164 24.153 43.8845C24.5717 44.051 25.2264 43.9914 25.5286 43.9191C29.0071 43.0677 33.2569 39.4829 36.2034 36.6239L35.621 36.1306C33.3765 38.2985 30.1593 40.8527 26.9925 42.411C26.7406 42.5336 26.4951 42.6718 26.2401 42.7818C25.7962 42.9891 26.0827 42.1189 26.2023 41.7953C26.7626 40.2998 27.3954 38.8828 28.1729 37.5319C30.7952 33.4853 32.281 31.019 35.281 27.2551C37.1698 24.8234 39.1058 22.4231 40.7774 19.8311C41.7375 18.2288 42.9338 16.5574 42.7764 14.5341C42.7764 14.5341 42.6977 13.3088 40.9663 12.2752L40.9726 12.2689Z" fill="white"/>
<path d="M25.9379 27.6227C21.2883 31.7102 17.1393 35.2447 16.3303 35.6908C16.0407 35.8322 15.4898 36.2249 15.2631 35.7725C15.0868 35.4175 16.1288 33.8497 16.7143 32.926C21.8959 24.7512 28.535 14.952 33.9432 6.92789C35.6147 4.23539 33.238 1.5429 33.238 1.55232C32.684 0.939676 32.1834 0.462127 31.4028 0.173084C30.6756 -0.125384 30.3608 -0.0185644 30.1278 0.345881C29.7501 1.20673 31.1541 1.50834 31.0565 2.37861C30.9274 3.54735 30.1184 4.87003 29.4038 5.79999C28.2989 7.43686 22.6231 13.7927 17.1582 18.7347L18.0144 19.4227C21.2789 16.3029 23.8917 13.3779 24.5591 12.7182C23.3565 14.6064 21.9872 16.3846 20.7217 18.232C18.3229 21.7759 14.133 26.7242 11.6902 30.243C10.6451 31.8421 9.62511 33.5198 9.2631 35.4583C9.03015 36.4543 9.39531 37.6701 10.2641 38.3739C12.9494 40.4035 16.5632 37.513 17.5895 36.737C18.4205 36.0867 22.6483 32.3322 26.9673 28.4993L25.9347 27.6259L25.9379 27.6227Z" fill="white"/>
<path d="M46.5917 43.7714C46.3808 43.5829 2.07001 3.1232 1.623 2.71476C1.43097 2.53883 1.18543 2.45085 0.92415 2.46028C0.666017 2.47285 0.426771 2.58281 0.250485 2.77446C0.0741991 2.9661 -0.0139443 3.21431 0.00179552 3.47507C0.0175354 3.7327 0.130862 3.97147 0.329184 4.14113C4.97873 8.21286 45.5214 43.7149 46.2171 44.2835C46.299 44.3495 46.3839 44.3778 46.4626 44.3778C46.5602 44.3778 46.6421 44.3338 46.6956 44.2678C46.7963 44.1421 46.79 43.9316 46.5917 43.7746V43.7714Z" fill="white"/>
</svg>
