<svg width="337" height="67" viewBox="0 0 337 67" fill="none" xmlns="http://www.w3.org/2000/svg"><path d="M333.423 16.9659H262.279V18.5446H333.423V16.9659Z" fill="#EC6608"/><path d="M116.165 16.9659H39.5964V18.5446H116.165V16.9659Z" fill="#EC6608"/><path d="M248.188 16.9659H130.265V18.5446H248.188V16.9659Z" fill="#EC6608"/><path d="M43.3126 1.7655H41.2462V10.1848H43.3126V1.7655Z" fill="#EC6608"/><path d="M54.9034 4.68508H54.9374L58.373 10.1848H60.7031V1.7655H58.7047L58.7557 7.26518H58.7217L55.3031 1.7655H52.956V10.1848H54.9544L54.9034 4.68508Z" fill="#EC6608"/><path d="M73.663 8.52127C73.5445 8.59243 73.4153 8.64402 73.2803 8.67404C73.1354 8.70821 72.987 8.72529 72.8381 8.72496C72.4827 8.7213 72.133 8.63407 71.8177 8.47035C71.4926 8.32012 71.2028 8.10323 70.9673 7.83382L69.6237 9.18327C70.0279 9.59649 70.5228 9.91029 71.0693 10.0999C71.6351 10.3103 72.2344 10.4167 72.8381 10.4139C73.249 10.4163 73.6582 10.362 74.0542 10.2527C74.4333 10.1497 74.7886 9.97379 75.1002 9.73494C75.404 9.50968 75.6538 9.21977 75.8315 8.88622C76.0168 8.49393 76.1071 8.06365 76.0951 7.63012C76.1115 7.26335 76.0262 6.89918 75.8485 6.57771C75.6846 6.30316 75.4679 6.06373 75.2107 5.87328C74.9531 5.6769 74.6661 5.52224 74.3603 5.41498L73.4589 5.09246L72.9147 4.91423C72.7732 4.86104 72.6366 4.79573 72.5065 4.71903C72.4004 4.6522 72.308 4.56579 72.2344 4.46441C72.1725 4.35612 72.143 4.23243 72.1493 4.10795C72.1419 3.96388 72.1806 3.82119 72.2599 3.70057C72.3344 3.59163 72.4334 3.50155 72.549 3.43747C72.6644 3.36981 72.7912 3.32378 72.9232 3.30168C73.0618 3.28939 73.2012 3.28939 73.3399 3.30168C73.6346 3.3005 73.9256 3.36731 74.1902 3.49688C74.4595 3.61342 74.696 3.7941 74.8791 4.02308L76.1972 2.65665C75.8126 2.31575 75.3648 2.05336 74.8791 1.88432C74.4036 1.71641 73.9037 1.62753 73.3994 1.62122C72.9976 1.62127 72.5975 1.67261 72.2088 1.77398C71.8313 1.86284 71.4737 2.02114 71.1544 2.24078C70.8359 2.45966 70.5737 2.75044 70.389 3.0895C70.1901 3.45655 70.0905 3.86899 70.0999 4.28618C70.0928 4.61829 70.1566 4.9481 70.287 5.25372C70.4045 5.51054 70.5722 5.74137 70.7802 5.93269C70.9879 6.11992 71.2231 6.27447 71.4775 6.391C71.7542 6.51063 72.0383 6.61268 72.3279 6.69653L73.0762 6.94266C73.2699 7.00558 73.4554 7.09105 73.629 7.19728C73.7639 7.26869 73.8803 7.37037 73.9691 7.49433C74.0568 7.61174 74.1017 7.75541 74.0967 7.90171C74.1003 8.04963 74.0652 8.19591 73.9947 8.32607C73.9044 8.42056 73.7895 8.48814 73.663 8.52127Z" fill="#EC6608"/><path d="M87.3968 7.01061H88.4258C88.855 7.0107 89.283 6.9623 89.7013 6.86633C90.0851 6.78112 90.4507 6.62884 90.7813 6.41651C91.0996 6.20239 91.3573 5.91011 91.5297 5.5678C91.7237 5.18428 91.8173 4.75801 91.8018 4.32867C91.8152 3.90685 91.7278 3.48789 91.5467 3.10652C91.3798 2.78469 91.1341 2.51025 90.8324 2.30873C90.5115 2.09909 90.1537 1.95221 89.7779 1.87588C89.3482 1.77852 88.9089 1.73011 88.4683 1.7316H85.3388V10.1848H87.3968V7.01061ZM87.3968 3.41206H88.3067C88.4851 3.3994 88.6641 3.3994 88.8424 3.41206C89.0031 3.43161 89.1588 3.48052 89.3017 3.55634C89.4356 3.62252 89.5477 3.7256 89.6248 3.85339C89.7121 3.99913 89.7536 4.16765 89.7439 4.33716C89.7553 4.50951 89.7138 4.68124 89.6248 4.82941C89.5476 4.96439 89.4323 5.07363 89.2932 5.14344C89.1463 5.22886 88.9848 5.28641 88.8169 5.31318C88.6348 5.34813 88.4497 5.36518 88.2642 5.3641H87.4138L87.3968 3.41206Z" fill="#EC6608"/><path d="M102.993 1.7655H100.926V10.1848H102.993V1.7655Z" fill="#EC6608"/><path d="M114.669 6.84932H115.366L117.22 10.1848H119.627L117.399 6.58622C117.908 6.43977 118.361 6.14409 118.7 5.7375C119.016 5.3238 119.181 4.81476 119.167 4.29469C119.182 3.87262 119.085 3.45419 118.887 3.08102C118.712 2.76124 118.457 2.4922 118.147 2.30021C117.826 2.09762 117.472 1.95391 117.101 1.87585C116.707 1.79069 116.305 1.74801 115.902 1.74854H112.653V10.1848H114.669V6.84932ZM114.669 3.41202H115.774C115.933 3.39998 116.092 3.39998 116.25 3.41202C116.404 3.43286 116.554 3.47873 116.693 3.54782C116.827 3.6133 116.941 3.71282 117.024 3.83638C117.113 3.97876 117.157 4.14414 117.152 4.31166C117.159 4.49777 117.109 4.68163 117.007 4.83786C116.919 4.9712 116.796 5.0771 116.65 5.1434C116.501 5.22078 116.34 5.27243 116.174 5.29617C115.999 5.3226 115.823 5.33678 115.647 5.33861H114.669V3.41202Z" fill="#EC6608"/><path d="M134.449 8.45338H130.486V6.70503H134.024V5.07549H130.486V3.47991H134.228V1.7655H128.505V10.1848H134.449V8.45338Z" fill="#EC6608"/><path d="M148.599 9.93863C149.154 9.78261 149.676 9.52661 150.139 9.18327C150.599 8.82975 150.974 8.37722 151.235 7.85928C151.528 7.26603 151.671 6.61055 151.652 5.94967C151.675 5.26114 151.532 4.57714 151.235 3.95519C150.974 3.44443 150.595 3.00246 150.13 2.66514C149.655 2.33635 149.121 2.10286 148.557 1.97768C147.975 1.83873 147.378 1.76753 146.779 1.7655H143.701V10.1848H146.873C147.457 10.1868 148.039 10.1038 148.599 9.93863ZM145.699 8.40246V3.47991H146.72C147.066 3.48022 147.412 3.52008 147.749 3.59873C148.056 3.67547 148.344 3.81094 148.599 3.99763C148.867 4.19126 149.083 4.44776 149.229 4.74449C149.535 5.50124 149.535 6.34717 149.229 7.10392C149.084 7.40552 148.868 7.66761 148.599 7.86777C148.327 8.05895 148.021 8.19716 147.698 8.27515C147.35 8.36073 146.993 8.40348 146.635 8.40246H145.699Z" fill="#EC6608"/><path d="M185.991 8.52121C185.872 8.59236 185.743 8.64395 185.608 8.67397C185.463 8.70814 185.315 8.72523 185.166 8.7249C184.811 8.72123 184.461 8.63401 184.146 8.47029C183.821 8.32005 183.531 8.10317 183.295 7.83375L181.952 9.1832C182.356 9.59643 182.851 9.91022 183.397 10.0998C183.963 10.3102 184.562 10.4166 185.166 10.4138C185.577 10.4157 185.986 10.3614 186.382 10.2526C186.761 10.1496 187.117 9.97373 187.428 9.73487C187.732 9.50961 187.982 9.2197 188.159 8.88615C188.345 8.49386 188.435 8.06359 188.423 7.63005C188.435 7.26369 188.35 6.90062 188.176 6.57765C188.013 6.30309 187.796 6.06367 187.539 5.87321C187.28 5.67854 186.993 5.52404 186.688 5.41491L185.787 5.0924L185.243 4.91417C185.1 4.86267 184.964 4.79729 184.834 4.71896C184.726 4.65524 184.633 4.56827 184.562 4.46435C184.5 4.35605 184.471 4.23237 184.477 4.10789C184.47 3.96382 184.509 3.82113 184.588 3.7005C184.662 3.594 184.757 3.50433 184.868 3.4374C184.987 3.37259 185.117 3.32948 185.251 3.31009C185.39 3.29749 185.529 3.29749 185.668 3.31009C185.963 3.30892 186.254 3.37573 186.518 3.5053C186.786 3.62414 187.022 3.80443 187.207 4.0315L188.517 2.66507C188.133 2.32235 187.685 2.05973 187.199 1.89274C186.726 1.72409 186.229 1.63517 185.727 1.62964C185.326 1.62969 184.925 1.68103 184.537 1.78241C184.157 1.87284 183.797 2.03098 183.474 2.2492C183.161 2.4716 182.902 2.76173 182.717 3.09792C182.518 3.46497 182.418 3.87741 182.428 4.2946C182.421 4.62671 182.485 4.95652 182.615 5.26214C182.732 5.51896 182.9 5.74979 183.108 5.94111C183.316 6.12835 183.551 6.28289 183.805 6.39942C184.065 6.51739 184.332 6.61942 184.605 6.70496L185.362 6.95108C185.555 7.01401 185.741 7.09946 185.914 7.20569C186.048 7.27945 186.164 7.38072 186.255 7.50275C186.339 7.62126 186.381 7.76482 186.374 7.91013C186.38 8.05729 186.348 8.20353 186.28 8.33449C186.201 8.4196 186.101 8.48375 185.991 8.52121Z" fill="#EC6608"/><path d="M199.733 1.7655H197.667V10.1848H199.733V1.7655Z" fill="#EC6608"/><path d="M211.333 4.68508H211.367L214.794 10.1848H217.132V1.7655H215.134L215.176 7.26518H215.142L211.724 1.7655H209.377V10.1848H211.375L211.333 4.68508Z" fill="#EC6608"/><path d="M227.686 9.18327C228.103 9.58448 228.597 9.8964 229.14 10.0999C229.721 10.3182 230.338 10.4275 230.96 10.4224C231.617 10.4342 232.269 10.3069 232.873 10.049C233.404 9.81113 233.88 9.46409 234.268 9.0305L232.873 7.68954C232.677 7.94997 232.424 8.16195 232.133 8.30909C231.8 8.47296 231.433 8.55447 231.062 8.54673C230.728 8.54838 230.399 8.48195 230.092 8.35153C229.802 8.23246 229.541 8.05306 229.327 7.82533C229.104 7.57879 228.934 7.29018 228.825 6.97661C228.702 6.64236 228.642 6.2886 228.646 5.93269C228.643 5.58236 228.703 5.23431 228.825 4.90575C228.933 4.59013 229.107 4.30091 229.335 4.05703C229.552 3.82394 229.816 3.6389 230.109 3.51385C230.424 3.38164 230.763 3.31521 231.104 3.31865C231.433 3.31839 231.76 3.3818 232.065 3.50537C232.368 3.62419 232.631 3.82745 232.822 4.09098L234.217 2.71606C233.831 2.29417 233.346 1.97599 232.805 1.79096C232.236 1.58171 231.634 1.47537 231.028 1.47694C230.408 1.47262 229.792 1.57601 229.208 1.78247C228.669 1.9668 228.172 2.25519 227.745 2.63119C227.294 3.05706 226.945 3.57933 226.725 4.15888C226.488 4.74083 226.369 5.364 226.376 5.99211C226.367 6.6122 226.485 7.22757 226.725 7.79987C226.949 8.32042 227.276 8.7908 227.686 9.18327Z" fill="#EC6608"/><path d="M248.979 8.45338H245.016V6.70503H248.554V5.07549H245.016V3.47991H248.758V1.7655H243.027V10.1848H248.979V8.45338Z" fill="#EC6608"/><path d="M282.076 3.60717C282.286 3.39843 282.565 3.27497 282.861 3.26085C283.157 3.24672 283.447 3.34296 283.675 3.53079C283.772 3.62554 283.847 3.73945 283.897 3.86516C283.947 3.99088 283.97 4.12562 283.964 4.26068C283.966 4.50378 283.898 4.74233 283.769 4.94815C283.629 5.17311 283.461 5.3786 283.267 5.55922L279.942 8.52124V10.2187H286.107V8.52124H282.629L284.602 6.82381C284.798 6.65406 284.976 6.47583 285.163 6.2976C285.341 6.12123 285.5 5.92793 285.64 5.72047C285.896 5.33561 286.048 4.89136 286.083 4.43054C286.117 3.96971 286.032 3.50785 285.835 3.08946C285.676 2.75634 285.44 2.46553 285.146 2.24074C284.847 2.02217 284.51 1.86101 284.151 1.76546C283.78 1.66328 283.397 1.61189 283.012 1.61269C282.61 1.6091 282.211 1.6722 281.83 1.79941C281.467 1.91221 281.129 2.09374 280.835 2.3341C280.545 2.56889 280.302 2.85698 280.121 3.18282C279.926 3.53716 279.805 3.92672 279.763 4.32858L281.702 4.5832C281.708 4.22407 281.841 3.8785 282.076 3.60717Z" fill="#EC6608"/><path d="M296.099 9.07297C296.374 9.4962 296.752 9.84187 297.199 10.0767C297.646 10.3116 298.146 10.4277 298.651 10.4139C299.184 10.4275 299.712 10.3017 300.181 10.049C300.598 9.81098 300.951 9.47617 301.21 9.07297C301.486 8.63855 301.682 8.1586 301.788 7.65562C301.909 7.0979 301.969 6.52877 301.967 5.95819C301.97 5.38754 301.91 4.81828 301.788 4.26076C301.683 3.76257 301.487 3.28791 301.21 2.86038C300.95 2.46208 300.597 2.13292 300.181 1.90133C299.711 1.65158 299.183 1.52871 298.651 1.54487C298.115 1.52879 297.585 1.65162 297.111 1.90133C296.692 2.13475 296.334 2.46328 296.065 2.86038C295.788 3.28791 295.592 3.76257 295.487 4.26076C295.358 4.81725 295.295 5.387 295.3 5.95819C295.296 6.52931 295.359 7.09891 295.487 7.65562C295.604 8.16087 295.812 8.64095 296.099 9.07297ZM297.451 5.08401C297.483 4.79525 297.546 4.51072 297.639 4.2353C297.72 3.98182 297.854 3.74782 298.03 3.54784C298.112 3.45667 298.213 3.38442 298.326 3.33607C298.439 3.28772 298.562 3.26441 298.685 3.26776C298.805 3.26337 298.925 3.28629 299.036 3.33479C299.146 3.3833 299.244 3.45613 299.322 3.54784C299.499 3.74619 299.63 3.98089 299.705 4.2353C299.795 4.51104 299.855 4.79556 299.884 5.08401C299.915 5.36587 299.932 5.64914 299.935 5.93272C299.932 6.2163 299.915 6.49955 299.884 6.78144C299.855 7.06992 299.795 7.35447 299.705 7.63016C299.63 7.88456 299.499 8.11927 299.322 8.31762C299.244 8.40932 299.146 8.48216 299.036 8.53067C298.925 8.57917 298.805 8.60209 298.685 8.5977C298.562 8.60105 298.439 8.57774 298.326 8.52939C298.213 8.48104 298.112 8.40878 298.03 8.31762C297.854 8.11763 297.72 7.88364 297.639 7.63016C297.546 7.35479 297.483 7.07024 297.451 6.78144C297.451 6.45893 297.409 6.16188 297.409 5.93272C297.409 5.70357 297.426 5.40652 297.451 5.08401Z" fill="#EC6608"/><path d="M313.847 4.00611V10.1848H315.854V1.7655H314.017L311.211 3.80242L312.257 5.21977L313.847 4.00611Z" fill="#EC6608"/><path d="M329.052 3.60723C329.261 3.39849 329.541 3.27503 329.837 3.2609C330.132 3.24678 330.422 3.34302 330.651 3.53085C330.746 3.62681 330.82 3.74093 330.87 3.86635C330.92 3.99177 330.943 4.12592 330.94 4.26074C330.942 4.50383 330.874 4.74239 330.744 4.9482C330.605 5.17317 330.436 5.37865 330.242 5.55928L326.917 8.5213V10.2187H333.083V8.5213H329.605L331.578 6.82386L332.139 6.29766C332.316 6.12129 332.476 5.92799 332.615 5.72053C332.759 5.51513 332.871 5.28905 332.947 5.05005C333.031 4.77516 333.071 4.48873 333.066 4.20133C333.081 3.82274 333.002 3.44625 332.836 3.10559C332.67 2.76492 332.421 2.47071 332.113 2.24929C331.817 2.03081 331.483 1.8696 331.127 1.77401C330.756 1.67183 330.372 1.62044 329.987 1.62124C329.583 1.61765 329.181 1.68073 328.797 1.80796C328.437 1.9227 328.103 2.1041 327.81 2.34265C327.52 2.57744 327.278 2.86553 327.096 3.19136C326.894 3.5425 326.772 3.93368 326.739 4.33713L328.678 4.59174C328.682 4.22969 328.814 3.88078 329.052 3.60723Z" fill="#EC6608"/><path d="M335.413 56.567C335.413 56.1936 334.852 56.2021 334.605 56.567C333.675 57.8113 332.489 58.8421 331.126 59.5903C329.763 60.3384 328.256 60.7863 326.705 60.904C321.603 61.0058 318.762 61.0058 318.762 61.0058V50.7364H333.448L332.947 47.6385H318.762V30.0277H329.452C330.746 30.1173 332.019 30.4035 333.227 30.8764C333.659 31.108 334.059 31.3931 334.418 31.7251C335.09 32.2598 335.005 30.9528 335.005 30.9528L334.486 24.0443C334.482 24.0007 334.461 23.9606 334.427 23.9321C334.394 23.9036 334.351 23.8891 334.307 23.8915H307.877C307.781 23.9075 307.691 23.9491 307.616 24.0119C307.541 24.0746 307.485 24.1563 307.453 24.2483C307.421 24.3403 307.414 24.4392 307.433 24.5347C307.453 24.6302 307.497 24.7188 307.563 24.7911C308.041 25.2686 308.453 25.8081 308.787 26.3952C309.46 27.5419 309.801 28.852 309.774 30.1805V60.3353C309.79 61.6508 309.559 62.9577 309.093 64.1885C308.83 64.9128 308.364 65.5463 307.75 66.0132C307.546 66.1745 307.656 66.6243 307.92 66.6243H320.625H335.983C336.026 66.5588 336.077 66.4989 336.136 66.4461C335.957 65.2664 336.136 66.4206 335.413 56.567Z" fill="#EC6608"/><path d="M172.937 65.4106C172.606 64.8701 172.321 64.3022 172.087 63.7132C171.852 63.1332 171.647 62.541 171.475 61.9394C171.36 61.4559 171.278 60.9654 171.228 60.4711L168.626 30.6982V30.469C168.65 29.4399 168.795 28.4172 169.06 27.4221C169.333 26.3975 169.816 25.4408 170.48 24.6129C170.527 24.5518 170.557 24.4788 170.565 24.4019C170.573 24.3251 170.559 24.2476 170.526 24.1779C170.492 24.1083 170.44 24.0494 170.375 24.0078C170.31 23.9662 170.234 23.9435 170.157 23.9424H158.166C158.086 23.9449 158.007 23.9702 157.941 24.0154C157.874 24.0606 157.821 24.1238 157.789 24.1977C157.757 24.2715 157.747 24.353 157.759 24.4325C157.772 24.512 157.807 24.5864 157.86 24.6468C159.185 26.1247 159.97 28.0059 160.088 29.9852L162.078 52.4168L146.771 31.0801L146.839 30.4096C146.935 29.6682 147.08 28.9339 147.273 28.2114C147.418 27.6425 147.623 27.0906 147.885 26.5649C148.123 26.0997 148.393 25.6516 148.693 25.2239C148.854 25.0287 149.024 24.825 149.212 24.6214C149.264 24.5632 149.298 24.4912 149.31 24.4141C149.323 24.337 149.313 24.258 149.281 24.1864C149.25 24.1149 149.199 24.0538 149.134 24.0106C149.068 23.9673 148.992 23.9436 148.914 23.9424H136.983C136.905 23.9439 136.829 23.9673 136.763 24.01C136.698 24.0526 136.646 24.1128 136.613 24.1836C136.58 24.2544 136.568 24.333 136.578 24.4104C136.587 24.4879 136.619 24.5609 136.668 24.6214C137.306 25.3388 137.772 26.1923 138.029 27.1166C138.264 27.9918 138.389 28.8926 138.403 29.7985C138.401 29.9648 138.378 30.1301 138.335 30.2908V30.7151L135.495 60.4881C135.376 61.8106 134.997 63.0968 134.381 64.2733C134.027 64.915 133.641 65.5382 133.224 66.1405C133.191 66.1895 133.171 66.2467 133.167 66.3059C133.163 66.3652 133.175 66.4244 133.202 66.4773C133.229 66.5303 133.27 66.575 133.32 66.6068C133.371 66.6387 133.428 66.6564 133.488 66.6582H145.674C145.742 66.6523 145.807 66.6279 145.862 66.5876C145.918 66.5474 145.961 66.4928 145.987 66.4298C146.013 66.3668 146.022 66.2979 146.012 66.2304C146.001 66.1629 145.973 66.0996 145.929 66.0471C145.453 65.4741 145.061 64.8369 144.764 64.1545C144.256 62.9789 144.004 61.7089 144.024 60.4287C144.008 60.1218 144.028 59.8142 144.084 59.512L146.303 36.2742L162.673 59.1386L162.801 60.6154V61.0397C162.783 62.1127 162.551 63.1714 162.12 64.1545C161.858 64.8388 161.484 65.4753 161.015 66.0387C160.972 66.0925 160.944 66.1571 160.934 66.2255C160.925 66.2939 160.934 66.3636 160.961 66.4272C160.988 66.4907 161.032 66.5458 161.088 66.5865C161.144 66.6272 161.21 66.652 161.279 66.6582H173.108C173.18 66.6473 173.248 66.6176 173.305 66.5721C173.362 66.5266 173.407 66.4669 173.433 66.3989C173.46 66.331 173.468 66.2572 173.457 66.185C173.446 66.1129 173.417 66.0448 173.371 65.9877C173.216 65.8039 173.071 65.6112 172.937 65.4106Z" fill="white"/><path d="M129.287 23.917H117.594C117.528 23.919 117.464 23.9369 117.407 23.9691C117.349 24.0012 117.301 24.0468 117.265 24.1018C117.229 24.1568 117.207 24.2197 117.2 24.285C117.194 24.3504 117.204 24.4163 117.228 24.4771C117.239 24.5327 117.262 24.5851 117.296 24.6299C117.813 25.1857 118.22 25.8335 118.496 26.5395C118.847 27.5616 119.034 28.6331 119.048 29.7137V59.1811C119.055 60.0992 119.016 61.017 118.929 61.931C118.863 62.5652 118.694 63.1844 118.428 63.7642C118.224 64.2932 117.937 64.7861 117.577 65.224C117.339 65.4871 117.058 65.7756 116.727 66.0727C116.682 66.1173 116.651 66.1742 116.638 66.2362C116.625 66.2983 116.63 66.3628 116.654 66.4217C116.678 66.4805 116.718 66.5312 116.77 66.5672C116.823 66.6033 116.884 66.6231 116.948 66.6244H129.253C129.517 66.6244 129.619 66.166 129.415 66.0048C128.799 65.5395 128.332 64.9055 128.071 64.18C127.61 62.951 127.379 61.6477 127.391 60.3354V30.1975C127.367 28.8722 127.708 27.5658 128.377 26.4207C128.713 25.8325 129.125 25.2904 129.602 24.8081C129.644 24.7642 129.677 24.7123 129.699 24.6555C129.721 24.5986 129.731 24.538 129.729 24.4771C129.737 24.4113 129.733 24.3445 129.715 24.2806C129.697 24.2166 129.667 24.1569 129.625 24.1048C129.584 24.0526 129.533 24.0092 129.475 23.977C129.417 23.9447 129.353 23.9243 129.287 23.917Z" fill="white"/><path d="M244.821 23.8915H232.873C232.789 23.8938 232.708 23.9194 232.638 23.9653C232.568 24.0112 232.512 24.0757 232.477 24.1515C232.441 24.2273 232.428 24.3114 232.438 24.3944C232.448 24.4774 232.481 24.556 232.533 24.6214C233.168 25.4386 233.699 26.3308 234.114 27.2779C234.757 28.9313 235.047 30.7005 234.965 32.4721C234.918 34.2959 234.702 36.1115 234.319 37.8953C233.928 40.1398 233.402 42.359 232.745 44.5408L230.118 53.7578L218.68 26.5056C218.647 26.429 218.593 26.3638 218.523 26.3179C218.454 26.272 218.372 26.2475 218.289 26.2475C218.205 26.2475 218.124 26.272 218.054 26.3179C217.985 26.3638 217.93 26.429 217.898 26.5056L207.812 53.6645L199.521 30.4691C199.266 29.8923 199.089 29.2844 198.993 28.6613C198.993 28.1945 198.934 27.8126 198.934 27.5495C198.951 26.9262 199.09 26.3122 199.342 25.7417C199.5 25.3845 199.696 25.0458 199.929 24.7318C199.985 24.6618 200.02 24.5779 200.032 24.4891C200.044 24.4004 200.031 24.3101 199.995 24.2281C199.959 24.146 199.902 24.0752 199.829 24.0234C199.756 23.9716 199.67 23.9407 199.58 23.934H188.21C188.124 23.9392 188.041 23.9682 187.97 24.0177C187.9 24.0671 187.844 24.1352 187.81 24.2143C187.775 24.2934 187.764 24.3805 187.776 24.4658C187.788 24.5511 187.824 24.6315 187.879 24.6978C188.612 25.585 189.227 26.5636 189.707 27.6089C190.577 29.363 191.338 31.1684 191.986 33.0152L199.708 54.2331C200.405 56.2983 201.165 58.4399 201.987 60.6579C202.744 62.7118 203.356 64.579 203.807 66.234C203.836 66.3416 203.901 66.4364 203.99 66.5039C204.079 66.5713 204.188 66.6077 204.3 66.6074H205.32C205.423 66.6065 205.523 66.5743 205.606 66.5151C205.69 66.456 205.753 66.3726 205.788 66.2764L215.704 39.805C216.129 40.7385 216.554 41.6891 216.988 42.6651C217.421 43.6412 217.838 44.5493 218.212 45.5168C219.618 49.0531 221.018 52.6121 222.413 56.1936C223.808 59.6225 225.132 62.9947 226.384 66.3103C226.418 66.4073 226.481 66.4913 226.565 66.5506C226.649 66.61 226.749 66.6417 226.852 66.6413H228.332C228.44 66.6409 228.545 66.6061 228.632 66.5421C228.72 66.478 228.784 66.3879 228.817 66.2849L235.092 45.9157C235.518 44.5917 235.943 43.3696 236.257 42.2917L237.252 39.2024C237.601 38.1924 237.95 37.2164 238.298 36.2828C238.647 35.3492 239.038 34.3223 239.472 33.3123C239.94 32.1411 240.382 31.1311 240.816 30.2739C241.205 29.4474 241.654 28.6503 242.159 27.889C242.656 27.1899 243.202 26.5263 243.792 25.903C244.192 25.5041 244.642 25.0543 245.11 24.6554C245.184 24.6004 245.239 24.5227 245.265 24.4341C245.291 24.3455 245.287 24.2508 245.255 24.1644C245.222 24.078 245.162 24.0046 245.084 23.9554C245.005 23.9061 244.913 23.8837 244.821 23.8915Z" fill="#EC6608"/><path d="M259.609 57.3733V33.1085C259.609 28.8055 260.927 25.886 262.279 24.4771C262.335 24.4137 262.366 24.3322 262.366 24.2479C262.366 24.1636 262.335 24.0822 262.279 24.0188C262.256 23.9811 262.223 23.9499 262.185 23.9277C262.146 23.9055 262.103 23.893 262.058 23.8915H248.614C248.549 23.8991 248.488 23.9239 248.437 23.9634C248.386 24.0028 248.346 24.0555 248.323 24.1156C248.299 24.1757 248.293 24.2411 248.303 24.3048C248.314 24.3685 248.342 24.428 248.384 24.4771C249.762 25.8775 251.029 28.7207 251.029 33.1V57.3733C251.029 61.7781 249.651 64.7232 248.265 66.0981C248.229 66.1386 248.205 66.1883 248.195 66.2416C248.185 66.295 248.19 66.35 248.209 66.4007C248.228 66.4515 248.261 66.496 248.304 66.5294C248.347 66.5628 248.398 66.5839 248.452 66.5903H262.16C262.216 66.585 262.269 66.5642 262.313 66.5303C262.358 66.4964 262.391 66.4507 262.411 66.3984C262.43 66.3462 262.435 66.2895 262.424 66.2349C262.412 66.1803 262.386 66.1299 262.347 66.0896C260.936 64.7232 259.609 61.8206 259.609 57.3733Z" fill="#EC6608"/><path d="M112.211 65.4107C111.883 64.8684 111.598 64.3008 111.361 63.7133C111.114 63.1022 110.91 62.5081 110.74 61.9394C110.57 61.3708 110.536 60.8786 110.493 60.4712L107.866 30.6897V30.4691C107.89 29.44 108.035 28.4172 108.299 27.4222C108.57 26.3982 109.05 25.4416 109.711 24.6129C109.758 24.5524 109.787 24.4802 109.796 24.4041C109.804 24.328 109.792 24.251 109.759 24.1817C109.727 24.1123 109.675 24.0533 109.611 24.0111C109.547 23.9689 109.473 23.9451 109.396 23.9425H97.4484C97.3678 23.9449 97.2895 23.9703 97.2227 24.0155C97.156 24.0607 97.1035 24.1239 97.0714 24.1977C97.0393 24.2716 97.0289 24.3531 97.0415 24.4326C97.054 24.5121 97.089 24.5864 97.1422 24.6469C98.459 26.1188 99.2408 27.9903 99.3618 29.9598L101.352 52.3914L86.0447 31.0547L86.1127 30.3842C86.2106 29.6437 86.3526 28.9097 86.5379 28.186C86.6897 27.618 86.8976 27.0665 87.1587 26.5395C87.3935 26.0745 87.6606 25.6264 87.958 25.1986C88.1196 25.0033 88.2897 24.7997 88.4768 24.596C88.5289 24.5378 88.5633 24.4658 88.5756 24.3887C88.588 24.3116 88.5779 24.2326 88.5465 24.161C88.5152 24.0895 88.4639 24.0285 88.3987 23.9852C88.3336 23.9419 88.2574 23.9182 88.1791 23.917H76.2567C76.1792 23.92 76.1042 23.9445 76.0399 23.9878C75.9757 24.0311 75.9248 24.0914 75.893 24.1619C75.8612 24.2324 75.8497 24.3104 75.8599 24.3871C75.8701 24.4638 75.9015 24.5361 75.9505 24.596C76.5854 25.3156 77.0504 26.1683 77.3112 27.0912C77.5429 27.9668 77.6657 28.8676 77.6768 29.7731C77.6775 29.939 77.6575 30.1044 77.6173 30.2654V30.6897L74.777 60.4627C74.6541 61.7844 74.2758 63.0698 73.663 64.2479C73.3071 64.8899 72.9182 65.5131 72.498 66.1151C72.464 66.1647 72.4442 66.2226 72.4407 66.2826C72.4372 66.3426 72.4501 66.4024 72.4781 66.4556C72.5061 66.5088 72.548 66.5534 72.5995 66.5846C72.6509 66.6159 72.7099 66.6325 72.7701 66.6328H84.9562C85.0243 66.6269 85.0895 66.6025 85.1446 66.5623C85.1998 66.522 85.2429 66.4674 85.2692 66.4044C85.2955 66.3414 85.304 66.2725 85.2938 66.205C85.2836 66.1376 85.255 66.0742 85.2113 66.0218C84.7296 65.4515 84.3342 64.8138 84.0377 64.1291C83.5295 62.9535 83.2773 61.6835 83.2979 60.4033C83.2831 60.0961 83.306 59.7883 83.3659 59.4867L85.5855 36.2488L101.955 59.1132L102.083 60.59V61.0143C102.061 62.0868 101.83 63.1448 101.403 64.1291C101.133 64.8102 100.761 65.4457 100.297 66.0133C100.251 66.0656 100.22 66.1297 100.209 66.1984C100.197 66.2672 100.205 66.3377 100.232 66.4022C100.258 66.4667 100.302 66.5224 100.359 66.5632C100.416 66.604 100.483 66.6281 100.552 66.6328H112.39C112.462 66.6219 112.53 66.5922 112.587 66.5467C112.645 66.5012 112.689 66.4415 112.715 66.3735C112.742 66.3056 112.75 66.2318 112.74 66.1596C112.729 66.0875 112.699 66.0194 112.653 65.9624C112.493 65.7891 112.345 65.6047 112.211 65.4107Z" fill="white"/><path d="M304.501 65.4106C304.168 64.8708 303.884 64.3028 303.651 63.7132C303.414 63.1365 303.21 62.5471 303.039 61.9479C302.925 61.4671 302.842 60.9795 302.792 60.4881L300.19 30.7066V30.469C300.214 29.4399 300.359 28.4172 300.623 27.4221C300.891 26.3955 301.375 25.4377 302.044 24.6129C302.091 24.5518 302.12 24.4788 302.129 24.4019C302.137 24.3251 302.123 24.2476 302.09 24.1779C302.056 24.1083 302.004 24.0494 301.939 24.0078C301.873 23.9662 301.798 23.9435 301.72 23.9424H289.73C289.649 23.9449 289.571 23.9702 289.504 24.0154C289.438 24.0606 289.385 24.1238 289.353 24.1977C289.321 24.2715 289.31 24.353 289.323 24.4325C289.336 24.512 289.371 24.5864 289.424 24.6468C290.748 26.1247 291.533 28.0059 291.652 29.9852L293.642 52.4168L278.335 31.0801L278.403 30.4096C278.503 29.6689 278.648 28.9348 278.836 28.2114C278.983 27.6429 279.188 27.0911 279.449 26.5649C279.686 26.0997 279.956 25.6516 280.257 25.2239L280.775 24.6214C280.827 24.5632 280.862 24.4912 280.874 24.4141C280.887 24.337 280.876 24.258 280.845 24.1864C280.814 24.1149 280.762 24.0538 280.697 24.0106C280.632 23.9673 280.556 23.9436 280.478 23.9424H268.589C268.511 23.9458 268.435 23.9707 268.37 24.0144C268.305 24.0581 268.254 24.1189 268.221 24.19C268.189 24.2611 268.176 24.3398 268.186 24.4174C268.195 24.4951 268.226 24.5686 268.275 24.6298C268.914 25.3431 269.38 26.1941 269.635 27.1166C269.87 27.9918 269.995 28.8926 270.009 29.7985L269.941 30.2823V30.7151L267.101 60.4966C266.981 61.8161 266.602 63.0993 265.987 64.2733C265.634 64.915 265.248 65.5382 264.831 66.1405C264.797 66.1895 264.777 66.2467 264.773 66.3059C264.769 66.3652 264.782 66.4244 264.809 66.4773C264.836 66.5303 264.876 66.575 264.927 66.6068C264.977 66.6387 265.035 66.6564 265.094 66.6582H277.28C277.348 66.6523 277.414 66.6279 277.469 66.5876C277.524 66.5474 277.567 66.4928 277.593 66.4298C277.62 66.3668 277.628 66.2979 277.618 66.2304C277.608 66.1629 277.579 66.0996 277.535 66.0471C277.06 65.4741 276.668 64.8369 276.37 64.1545C275.862 62.9789 275.61 61.7089 275.63 60.4287C275.615 60.1218 275.635 59.8142 275.69 59.512L277.91 36.2742L294.279 59.1386L294.407 60.6154V61.0397C294.389 62.1127 294.158 63.1714 293.727 64.1545C293.461 64.8371 293.088 65.4732 292.621 66.0387C292.578 66.0925 292.55 66.1571 292.54 66.2255C292.531 66.2939 292.54 66.3636 292.567 66.4272C292.594 66.4907 292.638 66.5458 292.694 66.5865C292.75 66.6272 292.816 66.652 292.885 66.6582H304.714C304.786 66.6473 304.854 66.6176 304.911 66.5721C304.969 66.5266 305.013 66.4669 305.039 66.3989C305.066 66.331 305.075 66.2572 305.064 66.185C305.053 66.1129 305.023 66.0448 304.977 65.9877L304.501 65.4106Z" fill="#EC6608"/><path d="M69.6747 27.3883C69.9552 26.3717 70.4382 25.422 71.0948 24.596C71.1439 24.5361 71.1753 24.4638 71.1855 24.3871C71.1957 24.3104 71.1842 24.2324 71.1524 24.1619C71.1206 24.0914 71.0697 24.0311 71.0055 23.9878C70.9412 23.9446 70.8661 23.92 70.7887 23.917H58.8152C58.7322 23.9141 58.6502 23.9359 58.5798 23.9798C58.5093 24.0237 58.4536 24.0876 58.4198 24.1633C58.386 24.239 58.3756 24.3231 58.39 24.4047C58.4044 24.4863 58.4429 24.5618 58.5006 24.6214C59.8186 26.1026 60.6002 27.9825 60.7201 29.9599L62.0722 45.1349L62.4804 49.7349C62.6079 50.8942 62.6079 52.0639 62.4804 53.2232C61.63 59.5121 58.2284 64.2565 54.1636 64.2565C49.4354 64.2565 45.6597 58.0184 45.6597 50.3121C45.647 50.0887 45.647 49.8649 45.6597 49.6416L45.9743 46.4589C45.9743 46.3401 45.9743 46.2722 45.9743 46.1958L46.9863 35.5274L47.488 30.4351C47.5704 29.6873 47.7097 28.9468 47.9047 28.22C48.0451 27.6511 48.2535 27.1012 48.5255 26.582C48.7533 26.1105 49.0207 25.659 49.3249 25.2325C49.4862 25.0196 49.6624 24.8182 49.8521 24.6299C49.9053 24.5707 49.9399 24.4972 49.9517 24.4185C49.9635 24.3398 49.9519 24.2594 49.9185 24.1872C49.885 24.115 49.8311 24.0542 49.7634 24.0122C49.6957 23.9702 49.6172 23.9489 49.5375 23.951H37.6065C37.5297 23.9555 37.4556 23.9807 37.392 24.0239C37.3285 24.0671 37.2778 24.1268 37.2455 24.1964C37.2133 24.2661 37.2005 24.3432 37.2087 24.4196C37.2168 24.4959 37.2456 24.5686 37.2919 24.6299C37.9357 25.3654 38.4064 26.2354 38.6695 27.1761C38.9023 28.049 39.0307 28.9464 39.0522 29.8495C39.0438 30.0125 39.0211 30.1744 38.9841 30.3333V30.7661L37.2834 48.2921L37.2153 49.1408C37.2153 49.5482 37.1643 49.9386 37.1643 50.3205C37.1713 53.1984 37.9523 56.0215 39.4257 58.4953C40.8991 60.969 43.0109 63.0026 45.5406 64.3838C48.1572 65.8724 51.1211 66.6453 54.1328 66.6245C57.1446 66.6036 60.0974 65.7897 62.693 64.2649C64.9272 62.9861 66.8239 61.1942 68.2259 59.0378C69.6279 56.8814 70.4947 54.4226 70.7547 51.8652C70.7547 51.356 70.7037 47.4604 70.7037 47.4604L69.258 30.7237V30.4691C69.2736 29.4293 69.4135 28.395 69.6747 27.3883ZM45.1835 30.834C45.1835 30.834 45.1835 30.834 45.1325 30.834L43.4317 32.4042C43.3637 32.4724 43.2829 32.5266 43.1939 32.5636C43.1048 32.6005 43.0094 32.6196 42.9129 32.6196C42.8165 32.6196 42.721 32.6005 42.632 32.5636C42.543 32.5266 42.4622 32.4724 42.3942 32.4042L40.9655 30.834C40.8699 30.6966 40.8245 30.5306 40.8368 30.3637C40.8492 30.1968 40.9187 30.0393 41.0336 29.9174C41.0336 29.9174 41.0846 29.9174 41.0846 29.8665L42.7854 28.3049C42.8533 28.2366 42.9342 28.1824 43.0232 28.1455C43.1122 28.1085 43.2077 28.0895 43.3041 28.0895C43.4005 28.0895 43.496 28.1085 43.585 28.1455C43.6741 28.1824 43.7549 28.2366 43.8229 28.3049L45.2515 29.8665L45.294 29.9174C45.3827 30.06 45.4201 30.2285 45.4 30.3951C45.3799 30.5617 45.3035 30.7165 45.1835 30.834ZM67.3361 30.834L65.8905 32.4042C65.8253 32.4727 65.7468 32.5273 65.6599 32.5647C65.5729 32.602 65.4792 32.6212 65.3845 32.6212C65.2898 32.6212 65.1961 32.602 65.1091 32.5647C65.0221 32.5273 64.9436 32.4727 64.8785 32.4042L63.1777 30.834C63.1777 30.834 63.1777 30.834 63.1267 30.834C63.0118 30.7122 62.9423 30.5546 62.93 30.3878C62.9176 30.2209 62.963 30.0549 63.0587 29.9174L63.1097 29.8665L64.4958 28.3049C64.561 28.2363 64.6394 28.1817 64.7264 28.1444C64.8134 28.1071 64.9071 28.0878 65.0018 28.0878C65.0965 28.0878 65.1902 28.1071 65.2772 28.1444C65.3642 28.1817 65.4426 28.2363 65.5078 28.3049L67.2086 29.8665V29.9174C67.3371 30.0291 67.4209 30.1834 67.4443 30.3519C67.4678 30.5204 67.4293 30.6916 67.3361 30.834Z" fill="white"/><path d="M24.2639 1.84185C21.8261 0.62022 19.1341 -0.010745 16.4063 0.000138438L10.6662 0.212317H0.954712C0.874037 0.216773 0.796214 0.243635 0.730015 0.289871C0.663816 0.336106 0.611874 0.399876 0.580046 0.473996C0.548217 0.548115 0.537769 0.629636 0.549877 0.709365C0.561984 0.789094 0.596166 0.86386 0.648571 0.925238C1.16785 1.47869 1.57501 2.12713 1.84762 2.83485C2.20524 3.856 2.39757 4.9275 2.41738 6.00904V59.1811C2.42649 60.0993 2.3839 61.0174 2.28982 61.9309C2.22625 62.5647 2.05966 63.1838 1.7966 63.7641C1.59345 64.2931 1.30632 64.786 0.946209 65.2239C0.7081 65.487 0.427472 65.7756 0.0958202 66.0726C0.0506737 66.1172 0.0196978 66.1741 0.00676655 66.2362C-0.00616474 66.2983 -0.000478868 66.3628 0.023113 66.4216C0.0467048 66.4805 0.0871572 66.5311 0.139413 66.5671C0.191668 66.6032 0.253409 66.6231 0.31692 66.6243H12.6221C12.8857 66.6243 12.9962 66.166 12.7836 66.0047C12.1727 65.5366 11.7093 64.9033 11.4485 64.18C10.9835 62.952 10.7527 61.648 10.7682 60.3353V45.9072H16.4233C19.1467 45.9101 21.8327 45.2734 24.2639 44.0485C26.8117 42.8474 29.0006 41.0022 30.6131 38.6961C32.2257 36.3899 33.206 33.7029 33.4566 30.9019L33.5501 29.6288L33.4566 15.0224C33.2067 12.2168 32.2271 9.52497 30.6148 7.21323C29.0025 4.90148 26.8133 3.04996 24.2639 1.84185ZM25.1908 30.3417C24.9782 37.7086 21.1004 43.5562 16.3723 43.5562H16.2532H10.7512V6.5013C10.7325 5.16945 11.0859 3.85872 11.7717 2.71603C11.8482 2.58872 11.9247 2.48688 12.0013 2.36806H16.2532H16.3723C21.1004 2.36806 24.9782 8.2157 25.1908 15.5826V30.3417Z" fill="white"/><path d="M251.624 18.6379L254.354 21.3623C254.588 21.594 254.904 21.724 255.234 21.724C255.564 21.724 255.88 21.594 256.114 21.3623L258.844 18.6379L258.92 18.5446C259.101 18.3211 259.2 18.0425 259.2 17.7553C259.2 17.468 259.101 17.1894 258.92 16.966L258.844 16.8726L256.114 14.1567C255.999 14.04 255.862 13.9472 255.711 13.8839C255.56 13.8206 255.398 13.788 255.234 13.788C255.07 13.788 254.908 13.8206 254.757 13.8839C254.605 13.9472 254.469 14.04 254.354 14.1567L251.624 16.8896L251.547 16.9829C251.365 17.2123 251.268 17.4982 251.274 17.7911C251.281 18.084 251.389 18.3656 251.581 18.587L251.624 18.6379Z" fill="#EC6608"/><path d="M119.499 16.9659C119.314 17.1873 119.212 17.4667 119.212 17.7552C119.212 18.0438 119.314 18.3232 119.499 18.5445L119.576 18.6379L122.297 21.3623C122.532 21.5945 122.85 21.7247 123.181 21.7247C123.512 21.7247 123.83 21.5945 124.066 21.3623L126.795 18.6379L126.872 18.5445C127.053 18.3211 127.151 18.0425 127.151 17.7552C127.151 17.468 127.053 17.1894 126.872 16.9659L126.795 16.8726L124.066 14.1567C123.95 14.0397 123.812 13.9467 123.661 13.8833C123.509 13.8199 123.346 13.7872 123.181 13.7872C123.017 13.7872 122.854 13.8199 122.702 13.8833C122.55 13.9467 122.412 14.0397 122.297 14.1567L119.576 16.8726L119.499 16.9659Z" fill="white"/></svg>